<?xml version="1.0" standalone="no"?>
<!DOCTYPE svg PUBLIC "-//W3C//DTD SVG 20010904//EN"
 "http://www.w3.org/TR/2001/REC-SVG-20010904/DTD/svg10.dtd">
<svg version="1.0" xmlns="http://www.w3.org/2000/svg"
 width="512.000000pt" height="512.000000pt" viewBox="0 0 512.000000 512.000000"
 preserveAspectRatio="xMidYMid meet">
<metadata>
Created by potrace 1.13, written by Peter Selinger 2001-2015
</metadata>
<g transform="translate(0.000000,512.000000) scale(0.100000,-0.100000)"
fill="#000000" stroke="none">
<path d="M2336 4434 c-14 -15 -30 -43 -36 -63 -15 -55 -12 -1606 3 -1651 8
-24 27 -45 62 -67 l50 -33 208 0 c124 0 216 4 228 10 50 27 49 9 49 888 l0
819 -25 23 c-14 13 -25 29 -25 36 0 7 -14 24 -31 38 l-31 26 -212 0 -213 0
-27 -26z"/>
<path d="M1454 3762 c-90 -31 -159 -99 -269 -262 -114 -170 -219 -424 -259
-625 -93 -474 -1 -950 258 -1340 253 -380 612 -625 1056 -721 69 -16 128 -19
315 -19 248 0 329 11 513 71 114 37 324 145 432 221 121 87 306 271 392 393
217 306 328 658 328 1036 -1 322 -78 618 -231 886 -171 299 -314 403 -485 353
-76 -22 -153 -96 -173 -168 -24 -82 -11 -128 54 -204 141 -165 234 -353 286
-582 28 -123 35 -347 16 -476 -73 -470 -365 -849 -767 -996 -140 -51 -210 -63
-370 -62 -161 1 -265 21 -412 83 -164 68 -346 212 -462 366 -252 336 -327 790
-201 1209 47 155 151 340 263 468 28 31 56 74 61 94 11 40 1 105 -24 152 -25
48 -100 109 -156 125 -67 20 -101 20 -165 -2z"/>
</g>
</svg>
