<?xml version="1.0" standalone="no"?>
<!DOCTYPE svg PUBLIC "-//W3C//DTD SVG 20010904//EN"
 "http://www.w3.org/TR/2001/REC-SVG-20010904/DTD/svg10.dtd">
<svg version="1.0" xmlns="http://www.w3.org/2000/svg"
 width="192.000000pt" height="192.000000pt" viewBox="0 0 192.000000 192.000000"
 preserveAspectRatio="xMidYMid meet">
<metadata>
Created by potrace 1.12, written by Peter Selinger 2001-2015
</metadata>
<g transform="translate(0.000000,192.000000) scale(0.100000,-0.100000)"
fill="#000000" stroke="none">
<path d="M865 1824 c-57 -30 -55 -15 -55 -464 0 -463 -2 -450 68 -470 87 -24
197 -4 219 40 10 19 13 123 13 425 0 220 -3 410 -6 423 -15 54 -167 83 -239
46z"/>
<path d="M493 1496 c-37 -17 -111 -89 -152 -150 -127 -186 -181 -442 -135
-649 34 -155 146 -333 272 -432 70 -56 195 -119 282 -142 90 -24 310 -24 400
0 214 57 397 209 495 412 91 190 100 394 26 608 -46 132 -143 276 -223 334
-75 53 -187 38 -229 -31 -29 -48 -24 -78 24 -138 135 -166 181 -279 181 -443
1 -158 -51 -289 -158 -398 -141 -142 -385 -170 -554 -63 -61 38 -148 140 -182
213 -103 217 -69 435 100 658 68 89 77 113 61 154 -28 66 -134 100 -208 67z"/>
</g>
</svg>
