<?xml version="1.0" standalone="no"?>
<!DOCTYPE svg PUBLIC "-//W3C//DTD SVG 20010904//EN"
 "http://www.w3.org/TR/2001/REC-SVG-20010904/DTD/svg10.dtd">
<svg version="1.0" xmlns="http://www.w3.org/2000/svg"
 width="816.000000pt" height="816.000000pt" viewBox="0 0 816.000000 816.000000"
 preserveAspectRatio="xMidYMid meet">
<metadata>
Created by potrace 1.12, written by Peter Selinger 2001-2015
</metadata>
<g transform="translate(0.000000,816.000000) scale(0.100000,-0.100000)"
fill="#000000" stroke="none">
<path d="M3930 7909 c-210 -24 -431 -137 -476 -244 -12 -29 -14 -318 -14
-1928 0 -2146 -8 -1950 85 -2035 103 -94 277 -135 570 -135 355 0 561 68 630
207 l25 50 0 1911 0 1911 -29 46 c-35 55 -74 86 -166 131 -166 82 -390 113
-625 86z"/>
<path d="M2075 6607 c-103 -29 -195 -74 -280 -138 -81 -62 -252 -229 -331
-324 -32 -38 -63 -75 -68 -82 -18 -20 -29 -35 -71 -93 -22 -30 -43 -56 -47
-58 -5 -2 -8 -8 -8 -13 0 -7 -56 -95 -70 -109 -6 -6 -8 -10 -100 -171 -37 -63
-83 -149 -103 -190 -47 -98 -127 -278 -137 -309 -5 -14 -21 -56 -35 -95 -110
-295 -176 -550 -226 -875 -20 -128 -23 -183 -23 -460 1 -333 9 -423 66 -695
34 -165 115 -436 164 -553 64 -149 175 -369 247 -487 197 -324 507 -685 791
-920 26 -22 55 -48 64 -57 9 -10 22 -18 29 -18 7 0 13 -4 13 -8 0 -5 26 -26
58 -48 31 -21 59 -41 62 -44 8 -9 203 -136 220 -143 8 -4 38 -20 65 -36 77
-45 314 -161 328 -161 3 0 22 -8 43 -17 53 -23 130 -51 184 -67 25 -8 59 -18
75 -24 43 -15 166 -47 270 -71 491 -110 1141 -110 1645 0 164 36 344 88 418
120 23 11 47 19 52 19 6 0 29 8 53 19 23 10 92 40 152 66 61 26 115 51 120 55
6 4 42 24 80 45 96 52 106 58 140 79 65 42 170 111 175 116 3 3 23 18 46 33
22 15 50 36 62 47 12 11 25 20 29 20 5 0 16 8 25 18 9 9 38 35 64 57 315 262
629 636 840 1004 50 88 149 290 198 403 49 117 130 388 164 553 57 273 66 362
66 695 0 333 -10 435 -66 705 -88 426 -253 866 -458 1225 -90 157 -94 164
-100 170 -14 14 -70 102 -70 109 0 5 -3 11 -8 13 -4 2 -25 28 -47 58 -22 30
-44 60 -50 67 -5 7 -15 18 -21 25 -135 165 -286 320 -392 401 -87 68 -193 119
-299 146 -80 20 -108 23 -210 18 -267 -12 -495 -149 -591 -354 -23 -51 -27
-70 -27 -163 0 -102 2 -107 38 -175 36 -69 56 -95 121 -165 126 -135 323 -403
453 -615 60 -99 193 -353 193 -372 1 -4 9 -26 20 -48 11 -22 19 -47 20 -56 0
-8 4 -19 9 -25 5 -5 22 -49 38 -99 103 -314 138 -532 138 -855 0 -369 -39
-577 -182 -965 -36 -100 -188 -379 -263 -486 -51 -73 -140 -190 -170 -224
-121 -138 -332 -335 -358 -335 -6 0 -12 -4 -14 -9 -6 -16 -141 -102 -243 -155
-213 -110 -434 -179 -665 -208 -135 -17 -465 -17 -600 0 -260 33 -556 134
-740 253 -25 16 -52 32 -60 36 -45 20 -220 162 -319 258 -136 132 -241 258
-347 420 -98 149 -101 154 -116 185 -7 14 -19 36 -28 50 -19 29 -140 302 -140
316 0 5 -9 31 -19 59 -43 113 -92 328 -113 495 -17 136 -17 485 0 620 16 127
46 278 74 380 33 115 79 254 89 264 5 6 9 17 9 25 1 9 9 34 20 56 11 22 19 44
20 48 0 19 133 273 193 372 48 78 150 232 196 295 56 77 216 277 235 295 14
13 85 102 112 140 12 17 31 58 44 92 18 51 21 77 18 155 -3 82 -7 101 -37 161
-69 138 -208 246 -395 309 -96 32 -296 34 -401 5z"/>
</g>
</svg>
